{"title":"Glory 31 Amsterdam 720p WEB h264 [TJET]","uid":15095839,"size":2769903651,"categoryP":"video","categoryS":"hd___tv_shows","magnet":"?xt=urn:btih:cb839470894568de4e3076f25a3ac037a65f8e3b&amp;dn=Glory+31+Amsterdam+720p+WEB+h264+%5BTJET%5D&amp;tr=udp%3A%2F%2Ftracker.leechers-paradise.org%3A6969&amp;tr=udp%3A%2F%2Fzer0day.ch%3A1337&amp;tr=udp%3A%2F%2Fopen.demonii.com%3A1337&amp;tr=udp%3A%2F%2Ftracker.coppersurfer.tk%3A6969&amp;tr=udp%3A%2F%2Fexodus.desync.com%3A6969","seeders":3,"leechers":1,"uploader":"CenaCme","files":2,"time":1466919220,"description":"Semifinal #1 Murthel Groenhart vs Karim Benmansour\r\nSemifinal #2 Yoann Kongolo vs Harut Grigorian\r\nIsmael Londt vs Hesdy Gerges\r\nWinner Semifinal #1 vs Winner Semifinal #2\r\nRobin van Roosmalen vs Sittichai Sitsongpeenong\r\n\r\nGeneral\r\nComplete name                            : Glory.31.Amsterdam.720p.WEB.h264.mp4\r\nFormat                                   : MPEG-4\r\nFormat profile                           : Base Media\r\nCodec ID                                 : isom\r\nFile size                                : 2.58 GiB\r\nDuration                                 : 2h 27mn\r\nOverall bit rate mode                    : Variable\r\nOverall bit rate                         : 2 504 Kbps\r\nWriting application                      : Lavf57.25.100\r\n\r\nVideo\r\nID                                       : 1\r\nFormat                                   : AVC\r\nFormat/Info                              : Advanced Video Codec\r\nFormat profile                           :   \r\nFormat settings, CABAC                   : Yes\r\nFormat settings, ReFrames                : 2 frames\r\nCodec ID                                 : avc1\r\nCodec ID/Info                            : Advanced Video Coding\r\nDuration                                 : 2h 27mn\r\nBit rate mode                            : Constant\r\nBit rate                                 : 2 400 Kbps\r\nWidth                                    : 1 280 pixels\r\nHeight                                   : 720 pixels\r\nDisplay aspect ratio                     : 16:9\r\nFrame rate mode                          : Constant\r\nFrame rate                               : 25.000 fps\r\nColor space                              : YUV\r\nChroma subsampling                       : 4:2:0\r\nBit depth                                : 8 bits\r\nScan type                                : Progressive\r\nBits/(Pixel*Frame)                       : 0.104\r\nStream size                              : 2.44 GiB (95%)\r\n\r\nAudio\r\nID                                       : 2\r\nFormat                                   : AAC\r\nFormat/Info                              : Advanced Audio Codec\r\nFormat profile                           : LC\r\nCodec ID                                 : 40\r\nDuration                                 : 2h 27mn\r\nBit rate mode                            : Variable\r\nBit rate                                 : 125 Kbps\r\nMaximum bit rate                         : 131 Kbps\r\nChannel(s)                               : 2 channels\r\nChannel positions                        : Front: L R\r\nSampling rate                            : 48.0 KHz\r\nCompression mode                         : Lossy\r\nStream size                              : 132 MiB (5%)\r\n\r\n\r\nThumb sheet:\r\n \nhttps://extraimago.com/image/a5Ct","torrent":{"xt":"urn:btih:cb839470894568de4e3076f25a3ac037a65f8e3b","amp;dn":"Glory+31+Amsterdam+720p+WEB+h264+%5BTJET%5D","amp;tr":["udp%3A%2F%2Ftracker.leechers-paradise.org%3A6969","udp%3A%2F%2Fzer0day.ch%3A1337","udp%3A%2F%2Fopen.demonii.com%3A1337","udp%3A%2F%2Ftracker.coppersurfer.tk%3A6969","udp%3A%2F%2Fexodus.desync.com%3A6969"],"infoHash":"cb839470894568de4e3076f25a3ac037a65f8e3b","infoHashBuffer":{"type":"Buffer","data":[203,131,148,112,137,69,104,222,78,48,118,242,90,58,192,55,166,95,142,59]},"announce":[],"urlList":[]}}